<svg width="24" height="24" viewBox="0 0 24 24" fill="none" xmlns="http://www.w3.org/2000/svg">
<path d="M14.9334 20.6127C15.1387 20.253 15.0135 19.7949 14.6537 19.5896C14.294 19.3843 13.8359 19.5095 13.6306 19.8692L14.9334 20.6127ZM10.3686 19.8686C10.1635 19.5087 9.70546 19.3833 9.3456 19.5884C8.98573 19.7935 8.86029 20.2515 9.06541 20.6114L10.3686 19.8686ZM2.66699 17.318L2.04364 16.9009C1.88971 17.131 1.87503 17.4271 2.00545 17.6713C2.13586 17.9155 2.39017 18.068 2.66699 18.068V17.318ZM21.334 17.318V18.068C21.6108 18.068 21.8651 17.9155 21.9956 17.6713C22.126 17.4271 22.1113 17.1309 21.9573 16.9009L21.334 17.318ZM19.174 14.09L18.5503 14.5066L18.5507 14.5071L19.174 14.09ZM4.82599 14.091L4.20332 13.6729L4.20264 13.6739L4.82599 14.091ZM13.6306 19.8692C13.3067 20.4368 12.6969 20.817 12 20.817V22.317C13.257 22.317 14.3533 21.6291 14.9334 20.6127L13.6306 19.8692ZM12 20.817C11.302 20.817 10.6925 20.4368 10.3686 19.8686L9.06541 20.6114C9.64551 21.6291 10.742 22.317 12 22.317V20.817ZM2.66699 18.068H21.334V16.568H2.66699V18.068ZM21.9573 16.9009L19.7973 13.6729L18.5507 14.5071L20.7107 17.7351L21.9573 16.9009ZM19.7976 13.6734C19.5495 13.3019 19.417 12.8667 19.417 12.422H17.917C17.917 13.1652 18.1385 13.89 18.5503 14.5066L19.7976 13.6734ZM19.417 12.422V9.33497H17.917V12.422H19.417ZM19.417 9.33497C19.417 5.23875 16.0962 1.91797 12 1.91797V3.41797C15.2678 3.41797 17.917 6.06718 17.917 9.33497H19.417ZM12 1.91797C7.90378 1.91797 4.58299 5.23875 4.58299 9.33497H6.08299C6.08299 6.06718 8.73221 3.41797 12 3.41797V1.91797ZM4.58299 9.33497V12.423H6.08299V9.33497H4.58299ZM4.58299 12.423C4.58299 12.8689 4.45085 13.3042 4.20332 13.6729L5.44867 14.509C5.86313 13.8917 6.08299 13.165 6.08299 12.423H4.58299ZM4.20264 13.6739L2.04364 16.9009L3.29035 17.735L5.44935 14.508L4.20264 13.6739Z" fill="#0E1223"/>
</svg>
